/* XPM */
static char *_8166_4f08e31235453829f5d520154894a1d62243aad64ef2c3ee9accb9c12795745d[] = {
/* columns rows colors chars-per-pixel */
"48 48 224 2 ",
"   c #171617",
".  c #101512",
"X  c #211C1D",
"o  c #231F20",
"O  c #2D2B2C",
"+  c #282526",
"@  c #312D2E",
"#  c #302627",
"$  c #332F30",
"%  c #3B2E31",
"&  c #363334",
"*  c #3A3436",
"=  c #3D3B3C",
"-  c #373937",
";  c #283830",
":  c #192B21",
">  c #413D3E",
",  c #763739",
"<  c #244737",
"1  c #345338",
"2  c #00652E",
"3  c #006B36",
"4  c #00783F",
"5  c #50543D",
"6  c #7E453F",
"7  c #423F40",
"8  c #2A5C45",
"9  c #0A7A45",
"0  c #1E7E51",
"q  c #376653",
"w  c #4C4A4B",
"e  c #464344",
"r  c #514D4E",
"t  c #545253",
"y  c #595456",
"u  c #5D5C5C",
"i  c #595758",
"p  c #4F4B52",
"a  c #684548",
"s  c #6B5550",
"d  c #766857",
"f  c #5D566D",
"g  c #665F60",
"h  c #745F62",
"j  c #567267",
"k  c #656363",
"l  c #6C6B6B",
"z  c #686667",
"x  c #746A6D",
"c  c #756E71",
"v  c #747274",
"b  c #7C7B7C",
"n  c #787778",
"m  c #697571",
"M  c #42735C",
"N  c #883B3C",
"B  c #993A3A",
"V  c #A53A3A",
"C  c #C92E32",
"Z  c #D63438",
"A  c #CB3134",
"S  c #E9272E",
"D  c #EC2D33",
"F  c #F32E35",
"G  c #ED3136",
"H  c #EC353A",
"J  c #F33237",
"K  c #F4363D",
"L  c #98413A",
"P  c #874F3F",
"I  c #AA483D",
"U  c #CF433C",
"Y  c #D0413B",
"T  c #F13B40",
"R  c #935D5A",
"E  c #90534A",
"W  c #A65746",
"Q  c #B64E50",
"!  c #986756",
"~  c #96735E",
"^  c #93634E",
"/  c #A96456",
"(  c #967A68",
")  c #827C7E",
"_  c #8F6B6C",
"`  c #A27B6E",
"'  c #A47975",
"]  c #B17674",
"[  c #CF494A",
"{  c #E9484C",
"}  c #F34247",
"|  c #F0585C",
" . c #F34E53",
".. c #F45E62",
"X. c #D5676C",
"o. c #EB747A",
"O. c #F4777B",
"+. c #EF686C",
"@. c #00833E",
"#. c #028C4B",
"$. c #068648",
"%. c #04954D",
"&. c #069B53",
"*. c #138C51",
"=. c #2D8D53",
"-. c #01A554",
";. c #01A959",
":. c #06A759",
">. c #00A04B",
",. c #319566",
"<. c #0EAC62",
"1. c #18A864",
"2. c #19B26A",
"3. c #23B46F",
"4. c #29B573",
"5. c #37B97B",
"6. c #31A66F",
"7. c #469057",
"8. c #479B74",
"9. c #558F72",
"0. c #69947C",
"q. c #78957B",
"w. c #6D8D72",
"e. c #4DAB7C",
"r. c #918B74",
"t. c #AC857C",
"y. c #766B87",
"u. c #82759D",
"i. c #F47F82",
"p. c #3DBD81",
"a. c #679A81",
"s. c #7C8B82",
"d. c #5DAC87",
"f. c #57B287",
"g. c #72A68E",
"h. c #76AB93",
"j. c #6ABD95",
"k. c #79B798",
"l. c #6CB38C",
"z. c #4BC38A",
"x. c #47C087",
"c. c #5AC794",
"v. c #53C08A",
"b. c #67C89A",
"n. c #71C59C",
"m. c #6ECEA0",
"M. c #78CCA4",
"N. c #79D3A8",
"B. c #848484",
"V. c #8C8B8C",
"C. c #888688",
"Z. c #918E90",
"A. c #8D9191",
"S. c #939494",
"D. c #9B9B9B",
"F. c #979A9B",
"G. c #908C8F",
"H. c #A98E83",
"J. c #B88986",
"K. c #AE938E",
"L. c #82B797",
"P. c #8CAB8E",
"I. c #ACA692",
"U. c #9E9CA1",
"Y. c #9DA2A3",
"T. c #89BAA3",
"R. c #96BAA9",
"E. c #A4A4A5",
"W. c #AAABAC",
"Q. c #A7A6A8",
"!. c #B3B4B5",
"~. c #BBBBBC",
"^. c #B6B9BA",
"/. c #AFAFB0",
"(. c #A79EA1",
"). c #C29594",
"_. c #F9999B",
"`. c #F7878A",
"'. c #D7A9AC",
"]. c #D9B4B6",
"[. c #CAACAF",
"{. c #F9A7A9",
"}. c #F9B7B9",
"|. c #E1B8BD",
" X c #F79FA1",
".X c #85CAA9",
"XX c #82D4AD",
"oX c #99C9B2",
"OX c #8BD7B3",
"+X c #99D9BB",
"@X c #8CCEB0",
"#X c #A3D2BB",
"$X c #A9CCBD",
"%X c #98E0BE",
"&X c #D2C1BB",
"*X c #C2BEC8",
"=X c #FBBFC0",
"-X c #B9D8CB",
";X c #B4CEC3",
":X c #A8E3C8",
">X c #C3C3C4",
",X c #CACBCC",
"<X c #C3DCD2",
"1X c #CCD7D3",
"2X c #D3D3D3",
"3X c #DBDBDB",
"4X c #D8D7D6",
"5X c #D4CBC9",
"6X c #FBC5C6",
"7X c #EAD0D1",
"8X c #C6E1D6",
"9X c #D3E4DD",
"0X c #DDE2E1",
"qX c #E3E4E4",
"wX c #EBEBEC",
"eX c #E7E7E8",
"rX c #EEEFF0",
"tX c #F3EDF2",
"yX c #F8EFF5",
"uX c #EFF0F1",
"iX c #F2F3F4",
"pX c #FBF6F9",
"aX c #DCD9E2",
"sX c None",
/* pixels */
"sXsXsXsXsXsXsXsXsXsXsXsXsXsXsXsXsXsXsXsXsXsXsXsXsXsXsXsXsXsXsXsXsXsXsXsXsXsXsXsXsXsXsXsXsXsXsXsX",
"sXsXsXsXsXsXsXsXsXsXsXsXsXsXsXsXsXsXsXsXsXsXsXsXsXsXsXsXsXsXsXsXsXsXsXsXsXsXsXsXsXsXsXsXsXsXsXsX",
"sXsXsXsXsXsXsXsXsXsXsXsXsXsXsXsXsXsXsXsXsXsXsXsXsXsXsXsXsXsXsXsXsXsXsXsXsXsXsXsXsXsXsXsXsXsXsXsX",
"sXsXsXsXsXsXsXsXsXsXsXsXsXsXsXsXsXsXsXD.S.Z.V.V.C.) n sXsXsXsXsXsXsXsXsXsXsXsXsXsXsXsXsXsXsXsXsX",
"sXsXsXsXsXsXsXsXsXsXsXsXsXsXsXE.Q.Y.F.A.C.C.C.C.C.B.V.B.v l l sXsXsXsXsXsXsXsXsXsXsXsXsXsXsXsXsX",
"sXsXsXsXsXsXsXsXsXsXsXsXsX^.W.D.C._ _ ' ] H.H.H.t.).K.J.K.A.y.l l V.sXsXsXsXsXsXsXsXsXsXsXsXsXsX",
"sXsXsXsXsXsXsXsXsXsXqX>X!.S._ ( t.I.h.k.L.k.k.M.L.L.l.P.I.).).Q.B.g v >XpXsXsXsXsXsXsXsXsXsXsXsX",
"sXsXsXsXsXsXsXpXrX,X>XQ.x R r.L.f.k.h.P.oX#X#X#XoXR.g.k.l.l.P.K.[.W.v i y.,XaXpXpXsXsXsXsXsXsXsX",
"sXsXsXsXsXsXsXiXD.*XB.E W l.f.l.R.@X:X:X%X%X+X%X%X%X%X+X.Xk.d.d.P.).[.S.i p f y.rXsXsXsXsXsXsXsX",
"sXsXsXsXsXsXsX2X;Xc V I ^ 0..XOXN.N.#X+XN.XXN.XXXXXXXXXXXXXXXXg.e.e.t.&XW.i w y.wXsXsXsXsXsXsXsX",
"sXsXsXsXsXsX>X*Xz V W L I XXN.N.n.j.:X-X#XN.m.m.m.m.m.m.m.b.b.N.b.9.5.q.[.!.i w qXsXsXsXsXsXsXsX",
"sXsXsXsXsXsX5Xl V W N S { b.c.c.f.8.j.-X8X8X+XXXb.c.c.c.c.c.c.c.c.b.8.6.q.]./.w n sXsXsXsXsXsXsX",
"sXsXsXsXsX4Xn B W B {  .[ f.z.c.f.6.,.T.1X-X1X9X<X+Xm.z.z.x.x.x.x.x.z.8.1.w.&XQ.7 sXsXsXsXsXsXsX",
"sXsXsXsX3XY.N / P S `._.U e.p.p.5.,.0 R.tX;X8.f.oX8X-X@X5.5.5.5.5.5.5.5.,.1.r.5Xb & sXsXsXsXsXsX",
"sXsXsXsX,Xs W R Z T K K U 4.4.4.3.,.9 T.pX;X*.9 *..X9X-XN.3.3.4.4.3.3.3.1.=.=.I.,Xw = sXsXsXsXsX",
"sXsXsXqXC.N ( I | =XK F U 3.2.2.2.*.3 h.pX<X&.*.9 9 $XwX-X5.<.<.<.<.:.3.c.1.*.=.5XF.& sXsXsXsXsX",
"sXsXsX2Xa / ^ { } | J F Y <.;.;.<.#.3 h.pX<X:.&.$.3 *.1XyX.X-.:.;.;.;.3.OX;.*.*.r.4Xw O sXsXsXsX",
"sXsXqXY.N r.[ _.i.H G F Y :.;.;.&.#.3 g.yX8X:.:.%.9 3 8.tXwXe.-.;.;.;.;.;.b.1.#.7.4Xq.@ sXsXsXsX",
"sXsXqXc W ~ o.=X7XO.S J Y :.;.;.-.#.2 g.yX9X:.;.-.#.3 9 1XyX:X-.;.;.;.-.<.XX2.$.*.I./.% sXsXsXsX",
"sXsX2Xa ~ / +. X XJ J F Y :.;.-.<.$X8.a.yX9X2.;.;.&.4 2 oXtXwX5.>.;.;.;.;.>.-.%.%.r.4Xw sXsXsXsX",
"sXsX/., r.Q {.=Xi.D G J U :.>.6..X0Xg.9.yX9X:.-.;.-.9 2 R.tXtXj.-.;.;.;.:.b.XX1.$.7.3Xc @ sXsXsX",
"sXwXF.N ` X.`. X| J J F Z :.%.8.e.d.L.oXyXwXn.4.;.-.$.2 L.yXtX@X-.;.;.-.2.m.5.4.#.7.5XB.O sXsXsX",
"sXqXA.a ( o.6X}.| D G J Y %.$.9X;XoXpXwXT.j..Xn.5.:.@.2 R.tXtX+X-.;.;.;.;.v.OX4.#.=.&XS.O sXsXsX",
"sXqXu.E r.o.=X}. .G G J Y $.4 h.0.R.yXqX;X<X9X9X8X#Xj.M T.tXpXoX&.&.:.&.&.b.OXj.9 =.&XD.@ sXsXsX",
"sXwXC.6 r.o._._.| G G J Z ; O : . S.rXeXpXqX&XW./.Q.D.G.z l >XV.@ - 1 - $ y.>Xz < 1 ].Y.O sXsXsX",
"sXeXA.6 ( o.6X6X..G G G Z % @ X w.wXwXwXD.n A.u.t $ . k 2X!./.y $ & % & & V.(.z ; w ].Z.O sXsXsX",
"sX4XD., ' X.}.6Xi.D G J Z > X e wXrXwXA.A.qXw.# + o = 4XiXpX>X& & & & & - V.[.i < 5 7Xs.O sXsXsX",
"sX0XW., r./ _.}.`.G G J Z > X (.iXtXB.w iXwXr O # & >XiXuX4Xw O & & & & = C.w.7 < a 7Xv O sXsXsX",
"sXsX,Xa ~ / O.}.}.| S J Z O - 3XrX3XO w rXwXi o e >XiXiX2Xy # % & & & & * & & & < ! 3Xr O sXsXsX",
"sXsXqXx W ( +.}.{.{ F F A o u iXtXW.. t iXeXr k 3XpXwXQ.8 # * * * & * @ x ^.& - 1 ).^.% sXsXsXsX",
"sXsX2XU., r.[ +...i.D F C X l iXiXS.  O z V.>XiX0XW.t + $ & * & & * & @ 5 p % < r 7XB.& sXsXsXsX",
"sXsXsX,Xa / R | O. XS F C X l iXiXF.X o - v y.g - + O & & & * & & & @ l F.O $ < ] 3Xw & sXsXsXsX",
"sXsXsXqXb N ~ Q  .} `.} C   u iXiXY.+ O + o o + O & & & & * & * & & & t b $ < w ].Q.& sXsXsXsXsX",
"sXsXsXsX&Xr ! ^ {  ._.} C X & 3XiX,X- $ $ $ & & & & & & & & * & & & & & O ; 1 ] 1Xt & sXsXsXsXsX",
"sXsXsXsX3XF., / E H F J C #   U.iXuXg # - - $ $ - = = & = = = > > > > > = 8 R 7XB.* sXsXsXsXsXsX",
"sXsXsXsXsX2Xv N ^ V D F Z * + t rXiX[.w i p V.F.z e i g w e r r r r t w 8 d ]./.e * sXsXsXsXsXsX",
"sXsXsXsXsX2X,Xg I ^ B G H w - O G.iXrX$XeXW.D.W.Z.2X,X,X^.C.k k k k t q d '.~.t e sXsXsXsXsXsXsX",
"sXsXsXsXsXsX>X~.s I P L A h t e 7 S.eXpXrX2X,X>X>X2X5X^.Q.D.B.D.c u M _ '.;Xu > sXsXsXsXsXsXsXsX",
"sXsXsXsXsXsXsX2X^.k L W P u l g r e k !.,X~.tXrX2X!.) z l v y.x j 7.` './.u w sXsXsXsXsXsXsXsXsX",
"sXsXsXsXsXsXsXsX>X~.y.6 W w.j z z k u u k l V.V.y.q.u.r.r.n m 9.n J.'.Y.i w sXsXsXsXsXsXsXsXsXsX",
"sXsXsXsXsXsXsXsXsX~.*XF.h E ( 0.9.m z m v v c b G.Z.y.m s.9.r.t.[.!.b y r sXsXsXsXsXsXsXsXsXsXsX",
"sXsXsXsXsXsXsXsXsXsXsX~./.C.x R _ r.q.s.a.w.0.0.q.g.s.r.H.J.).Q.V.z i sXsXsXsXsXsXsXsXsXsXsXsXsX",
"sXsXsXsXsXsXsXsXsXsXsXsXsX!.E.A.) _ _ ' ' ` t.t.' t.K.K.D.S.B.l u y sXsXsXsXsXsXsXsXsXsXsXsXsXsX",
"sXsXsXsXsXsXsXsXsXsXsXsXsXsXsXQ.Q.D.G.C.u.r.B.C.G.V.C.B.n l z sXsXsXsXsXsXsXsXsXsXsXsXsXsXsXsXsX",
"sXsXsXsXsXsXsXsXsXsXsXsXsXsXsXsXsXsXD.D.S.S.V.V.C.) b v sXsXsXsXsXsXsXsXsXsXsXsXsXsXsXsXsXsXsXsX",
"sXsXsXsXsXsXsXsXsXsXsXsXsXsXsXsXsXsXsXsXsXsXsXsXsXsXsXsXsXsXsXsXsXsXsXsXsXsXsXsXsXsXsXsXsXsXsXsX",
"sXsXsXsXsXsXsXsXsXsXsXsXsXsXsXsXsXsXsXsXsXsXsXsXsXsXsXsXsXsXsXsXsXsXsXsXsXsXsXsXsXsXsXsXsXsXsXsX",
"sXsXsXsXsXsXsXsXsXsXsXsXsXsXsXsXsXsXsXsXsXsXsXsXsXsXsXsXsXsXsXsXsXsXsXsXsXsXsXsXsXsXsXsXsXsXsXsX"
};
