/* XPM */
static char *_573_9183a98a395dd3a26695865787ca3003baef84b206506771d980759349edba75[] = {
/* columns rows colors chars-per-pixel */
"16 16 80 1 ",
"  c #363033",
". c #363D39",
"X c #424241",
"o c #474446",
"O c #504D4E",
"+ c #54514F",
"@ c #555253",
"# c #605759",
"$ c #645F5F",
"% c #5F6862",
"& c #626162",
"* c #6D6664",
"= c #646F65",
"- c #6D6C69",
"; c #6C6B6C",
": c #716F6A",
"> c #75716C",
", c #B8282B",
"< c #B63033",
"1 c #AF4436",
"2 c #C83E43",
"3 c #8F5955",
"4 c #B85847",
"5 c #BA5E50",
"6 c #B25C5B",
"7 c #AF605C",
"8 c #96746A",
"9 c #837E7B",
"0 c #847F7B",
"q c #807D7F",
"w c #807E7F",
"e c #847F7C",
"r c #DE6164",
"t c #DE6A69",
"y c #F57378",
"u c #F57A7D",
"i c #119355",
"p c #0CA15C",
"a c #02B05E",
"s c #19A965",
"d c #33A66F",
"f c #2FB06F",
"g c #2DB775",
"h c #33B072",
"j c #36B279",
"k c #678670",
"l c #6C9C7E",
"z c #85817B",
"x c #89837F",
"c c #5DAB87",
"v c #76B99A",
"b c #74BE9B",
"n c #7FBB9B",
"m c #54C792",
"M c #7AC29C",
"N c #7BC2A1",
"B c #888884",
"V c #858B8A",
"C c #8C8E8F",
"Z c #928C8A",
"A c #859F8B",
"S c #91938C",
"D c #92978E",
"F c #8E8F90",
"G c #9A9693",
"H c #9A9D9C",
"J c #AB8F8C",
"K c #AD8F8C",
"L c #AA9A98",
"P c #AF9E9C",
"I c #88B6A1",
"U c #A5A7A6",
"Y c #ADA4A4",
"T c #A5A8A7",
"R c #8FC0AA",
"E c #86D4AF",
"W c #95D5B7",
"Q c #B7DACA",
"! c #C3C2C4",
"~ c None",
/* pixels */
"~~~~~~~~~~~~~~~~",
"~~~~~~~~~~~~~~~~",
"~~~~~GDSe~~~~~~~",
"~~~~8nWEMA#~~~~~",
"~~~65jRNmgl~~~~~",
"~~Pr4pvibaf=~~~~",
"~~Ky1cQdIshk~~~~",
"~~Ju,V!qH.%:~~~~",
"~~Lt2C;wO +*~~~~",
"~~~7<F&@oX>~~~~~",
"~~~Y3-TUBz$~~~~~",
"~~~~~Z0x9~~~~~~~",
"~~~~~~~~~~~~~~~~",
"~~~~~~~~~~~~~~~~",
"~~~~~~~~~~~~~~~~",
"~~~~~~~~~~~~~~~~"
};
