/* XPM */
static char *_2759_6f25c830a4735114d6f8ea85e37713a9488c096383f5e0b1f00e8dfbbf77b7ed[] = {
/* columns rows colors chars-per-pixel */
"32 32 216 2 ",
"   c #1C191A",
".  c #130E10",
"X  c #211D1E",
"o  c #1B1B21",
"O  c #1A2722",
"+  c #133127",
"@  c #2D2A2B",
"#  c #272827",
"$  c #312D2F",
"%  c #35262D",
"&  c #322F30",
"*  c #2B3B35",
"=  c #353334",
"-  c #393537",
";  c #3D3A3B",
":  c #333B3C",
">  c #2F342F",
",  c #36473A",
"<  c #046E35",
"1  c #007936",
"2  c #00722F",
"3  c #454638",
"4  c #483D42",
"5  c #3A4840",
"6  c #167C4A",
"7  c #434244",
"8  c #4A4648",
"9  c #4B484A",
"0  c #555354",
"q  c #5D5C5D",
"w  c #58595B",
"e  c #505351",
"r  c #7C544A",
"t  c #795952",
"y  c #605E5F",
"u  c #636355",
"i  c #5B5E60",
"p  c #675F62",
"a  c #5B6865",
"s  c #6C6B6C",
"d  c #676367",
"f  c #6A796D",
"g  c #69657E",
"h  c #746D71",
"j  c #7C6E7D",
"k  c #6D7974",
"l  c #777876",
"z  c #7F6561",
"x  c #84191D",
"c  c #891E21",
"v  c #97272B",
"b  c #953A31",
"n  c #A32E33",
"m  c #C83936",
"M  c #C42A29",
"N  c #F62D32",
"B  c #FA2A33",
"V  c #ED3338",
"C  c #F32A31",
"Z  c #8A473A",
"A  c #944437",
"S  c #895339",
"D  c #C0413E",
"F  c #B43C42",
"G  c #814E45",
"H  c #8D5347",
"J  c #965449",
"K  c #9E5E54",
"L  c #805853",
"P  c #B54B43",
"I  c #8D6344",
"U  c #85625D",
"Y  c #956C53",
"T  c #AE715D",
"R  c #886563",
"E  c #85726C",
"W  c #8A7674",
"Q  c #947979",
"!  c #B66D65",
"~  c #B9756B",
"^  c #F1464B",
"/  c #FB4F54",
"(  c #E25659",
")  c #F55459",
"_  c #ED464B",
"`  c #C2625C",
"'  c #F05B60",
"]  c #C16B64",
"[  c #F7656B",
"{  c #F96D72",
"}  c #F6747A",
"|  c #048A45",
" . c #03994C",
".. c #158D53",
"X. c #069651",
"o. c #159958",
"O. c #1D8248",
"+. c #269557",
"@. c #2F8C5E",
"#. c #01A553",
"$. c #01AB59",
"%. c #0AAC5D",
"&. c #04A956",
"*. c #00B15A",
"=. c #00A54D",
"-. c #369962",
";. c #2C9462",
":. c #15AC65",
">. c #19B36A",
",. c #05B869",
"<. c #28B573",
"1. c #37B87A",
"2. c #24B06C",
"3. c #479868",
"4. c #589677",
"5. c #4C906D",
"6. c #748377",
"7. c #51A377",
"8. c #74A37C",
"9. c #22C37D",
"0. c #85897B",
"q. c #94857C",
"w. c #978C7F",
"e. c #686192",
"r. c #F57E81",
"t. c #3EBD81",
"y. c #7E9E8D",
"u. c #56A983",
"i. c #48B883",
"p. c #53BC8D",
"a. c #74A289",
"s. c #69B290",
"d. c #7EBFA1",
"f. c #4AC289",
"g. c #58C18F",
"h. c #5BC693",
"j. c #40CE90",
"k. c #63C999",
"l. c #78C29D",
"z. c #7BCDA5",
"x. c #76CBA4",
"c. c #69D8A5",
"v. c #74D3A8",
"b. c #8A8184",
"n. c #8D8A8C",
"m. c #878587",
"M. c #948383",
"N. c #9D8C84",
"B. c #958B8D",
"V. c #998889",
"C. c #948F90",
"Z. c #949495",
"A. c #9C9B9C",
"S. c #9B9496",
"D. c #8D9885",
"F. c #A18E8C",
"G. c #AC9A95",
"H. c #A69A9B",
"J. c #AD9A93",
"K. c #87A78D",
"L. c #87AD96",
"P. c #9CA796",
"I. c #8BB39C",
"U. c #93B498",
"Y. c #90AD8E",
"T. c #B4A39F",
"R. c #ADA899",
"E. c #AC9DA3",
"W. c #A6AAAA",
"Q. c #A8A6A7",
"!. c #BDACAC",
"~. c #B5A9A9",
"^. c #A9B9A3",
"/. c #B5B3AB",
"(. c #ABB7B4",
"). c #BBBBBC",
"_. c #B5B6B9",
"`. c #DE8282",
"'. c #F68386",
"]. c #EE9396",
"[. c #FB989A",
"{. c #C3ADAE",
"}. c #FCA9AD",
"|. c #FEB2B6",
" X c #84CCAB",
".X c #8AC4A7",
"XX c #85D5AF",
"oX c #98CBB4",
"OX c #88D8B2",
"+X c #96D9BA",
"@X c #96C5AE",
"#X c #ACCABD",
"$X c #B6BFC0",
"%X c #9CDDC0",
"&X c #A8D9C3",
"*X c #B6DCCB",
"=X c #B3CEC2",
"-X c #ADE5CB",
";X c #C3C3C4",
":X c #CACBCD",
">X c #C5C8C9",
",X c #CED2D2",
"<X c #CDDCD7",
"1X c #D4D5D6",
"2X c #DBDBDC",
"3X c #C9CFD0",
"4X c #FFC1C5",
"5X c #CEE4DB",
"6X c #DFE0E1",
"7X c #EAE5E9",
"8X c #ECEAED",
"9X c #E7EAEB",
"0X c #FEFEFE",
"qX c #F9F4F9",
"wX c #EFEFF0",
"eX c None",
/* pixels */
"eXeXeXeXeXeXeXeXeXeXeXeXeXeXeXeXeXeXeXeXeXeXeXeXeXeXeXeXeXeXeXeX",
"eXeXeXeXeXeXeXeXeXeXeXeXeXeXeXeXeXeXeXeXeXeXeXeXeXeXeXeXeXeXeXeX",
"eXeXeXeXeXeXeXeXeXeXeXeXeXZ.B.n.m.b.l eXeXeXeXeXeXeXeXeXeXeXeXeX",
"eXeXeXeXeXeXeXeXeXeXQ.F.V.q.M.N.N.F.F.V.W s eXeXeXeXeXeXeXeXeXeX",
"eXeXeXeXeXeXeXeX;XS.q.0.K.K.U..X.XI.L.Y.G.J.b.n.>XeXeXeXeXeXeXeX",
"eXeXeXeXeXeX1X_.Q U 8.l. X+X+X+X+X+X Xx.s.K.R.N.d e.eXeXeXeXeXeX",
"eXeXeXeXeXeXW.R b R v.z. X-X+Xv.v.z.OXXXz.s.u.P.T.9 e.eXeXeXeXeX",
"eXeXeXeXeX=XR b M ! c.k.u.oX*X%XOXk.h.h.k.k.g.7.Y.~.g eXeXeXeXeX",
"eXeXeXeX1XQ b n { T j.i.;.s.<X=X&X*Xx.i.t.f.f.1.-.Y.Q.3 eXeXeXeX",
"eXeXeXeXH.G P _ / T 9.1.o.4.7X7.@..X5Xk.>.<.<.<.:.@.^.j eXeXeXeX",
"eXeXeX:XR J ( { B Y ,.%.| 5.wX7.1 6 =X5X2.$.$.>.f.X.3./.9 eXeXeX",
"eXeXeX/.r ] } _ B I *.*.1 5.8Xf. .< @.8Xz.#.&.&.1.<.O.^.h eXeXeX",
"eXeXeXV.H `.4X) C H *.%...4.7Xg.#.| < #X8X2.=.&.:.9.| 8.G.$ eXeX",
"eXeX,XR K ].[.V N I #.1.@Xa.7Xk.=. .< I.qXg.=.&.:.t.o.-.~.4 eXeX",
"eXeX:Xt ! }.r.V B I %.I.@X#X<X X<.#.2 I.0Xx.=.*.>.v.2.o./.0 eXeX",
"eXeX>Xt ~ |.r.V B S ..a.(.wX*X*X*X X-.y.wX.X . .o.z.u.O./.w eXeX",
"eXeX>Xt ~ |.'.V N b + O W.0X:X).~.n.s m.).k > , , P.k , /.w eXeX",
"eXeX;Xt ! |.[.V N n o h qX;XW.C.; . s 7X>X4 % % 4 E.d 3 !.e eXeX",
"eXeX3Xz K ].}._ N n * 1X6Xy 1Xn.. 0 9XqXl $ = = ; p : 0 !.7 eXeX",
"eXeXeXM.H `.}.) N v w 0XA.> 2Xn.h 9X7Xs # = = & 0 d O W H.& eXeX",
"eXeXeXQ.r ` { [ N x a 0XB.  q Q.#XB.; @ = - = ; y 5 > T.l eXeXeX",
"eXeXeX:XU J ( { / x a 0XA.  # ; % # $ - = = = 7 h # u {.9 eXeXeX",
"eXeXeXeXH.r P ) ) c : 9X;X= X # $ & $ $ - = - - > , T.b.eXeXeXeX",
"eXeXeXeX:XW G m B n O A.0Xl 8 p d 0 q 0 8 8 9 8 , w.~.7 eXeXeXeX",
"eXeXeXeXeX).U Z m F : 9 ,XwX1X).#X{.:XW.l h i e q.{.q eXeXeXeXeX",
"eXeXeXeXeXeXQ.U b J a 8 q _.1X1X2X;XA.n.m.6.a N.{.s eXeXeXeXeXeX",
"eXeXeXeXeXeXeX_.W r f f w q h n.S.m.k k f 0.G.E.s eXeXeXeXeXeXeX",
"eXeXeXeXeXeXeXeX_.V.E E l l f f 6.m.0.w.F.G.M.a eXeXeXeXeXeXeXeX",
"eXeXeXeXeXeXeXeXeXeXQ.Z.q.Q Q q.q.N.N.B.b.s eXeXeXeXeXeXeXeXeXeX",
"eXeXeXeXeXeXeXeXeXeXeXeXA.Z.Z.n.n.m.y.h eXeXeXeXeXeXeXeXeXeXeXeX",
"eXeXeXeXeXeXeXeXeXeXeXeXeXeXeXeXeXeXeXeXeXeXeXeXeXeXeXeXeXeXeXeX",
"eXeXeXeXeXeXeXeXeXeXeXeXeXeXeXeXeXeXeXeXeXeXeXeXeXeXeXeXeXeXeXeX"
};
